<svg width="36" height="36" viewBox="0 0 36 36" fill="none" xmlns="http://www.w3.org/2000/svg">
<path d="M17.8333 3.66667H10C7.19974 3.66667 5.79961 3.66667 4.73005 4.21163C3.78924 4.691 3.02433 5.4559 2.54497 6.39671C2 7.46627 2 8.8664 2 11.6667V25.6667C2 28.4669 2 29.8671 2.54497 30.9366C3.02433 31.8774 3.78924 32.6423 4.73005 33.1217C5.79961 33.6667 7.19974 33.6667 10 33.6667H25.3333C26.8833 33.6667 27.6583 33.6667 28.2941 33.4963C30.0196 33.034 31.3673 31.6862 31.8296 29.9608C32 29.3249 32 28.55 32 27M28.6667 12V2M23.6667 7H33.6667M14.5 12.8333C14.5 14.6743 13.0076 16.1667 11.1667 16.1667C9.32572 16.1667 7.83333 14.6743 7.83333 12.8333C7.83333 10.9924 9.32572 9.5 11.1667 9.5C13.0076 9.5 14.5 10.9924 14.5 12.8333ZM21.9834 18.5302L7.88525 31.3467C7.09227 32.0676 6.69578 32.4281 6.66071 32.7403C6.63031 33.011 6.73409 33.2794 6.93864 33.4592C7.17463 33.6667 7.71047 33.6667 8.78214 33.6667H24.4266C26.8252 33.6667 28.0246 33.6667 28.9665 33.2637C30.1491 32.7578 31.0912 31.8157 31.597 30.6332C32 29.6912 32 28.4919 32 26.0933C32 25.2863 32 24.8827 31.9118 24.5069C31.8009 24.0346 31.5883 23.5923 31.2888 23.2107C31.0504 22.907 30.7353 22.6549 30.1051 22.1508L25.443 18.4211C24.8123 17.9165 24.4969 17.6642 24.1497 17.5752C23.8436 17.4967 23.5214 17.5069 23.2209 17.6045C22.8799 17.7152 22.5811 17.9869 21.9834 18.5302Z" stroke="#475467" stroke-width="3.33333" stroke-linecap="round" stroke-linejoin="round"/>
</svg>
