<svg width="193" height="194" viewBox="0 0 193 194" fill="none" xmlns="http://www.w3.org/2000/svg">
<rect x="12" y="12.5" width="169" height="169" rx="84.5" fill="#DEFFE2"/>
<rect x="12" y="12.5" width="169" height="169" rx="84.5" stroke="#F1FFF3" stroke-width="24"/>
<path d="M89.0862 118.688C87.7403 120.034 85.5581 120.034 84.2122 118.688L66.1675 100.643C64.8215 99.2973 64.8215 97.1152 66.1675 95.7693L67.0232 94.9136C68.3691 93.5676 70.5512 93.5676 71.8972 94.9136L84.2122 107.229C85.5581 108.575 87.7403 108.575 89.0862 107.229L121.103 75.2115C122.449 73.8656 124.631 73.8656 125.977 75.2115L126.833 76.0672C128.179 77.4131 128.179 79.5952 126.833 80.9412L89.0862 118.688Z" fill="#00A410"/>
</svg>
