<svg width="39" height="40" viewBox="0 0 39 40" fill="none" xmlns="http://www.w3.org/2000/svg">
<rect x="0.40625" y="0.90625" width="38.1875" height="38.1875" rx="19.0938" fill="#F9FCFF"/>
<rect x="0.40625" y="0.90625" width="38.1875" height="38.1875" rx="19.0938" stroke="#5D26F1" stroke-width="0.8125"/>
<path d="M17.5492 26.1698C17.1484 26.5705 16.4987 26.5705 16.098 26.1698L10.7256 20.7974C10.3248 20.3966 10.3248 19.7469 10.7256 19.3462L10.9803 19.0915C11.3811 18.6907 12.0307 18.6907 12.4315 19.0915L16.098 22.758C16.4987 23.1587 17.1484 23.1587 17.5492 22.758L27.0816 13.2256C27.4823 12.8248 28.132 12.8248 28.5327 13.2256L28.7875 13.4803C29.1882 13.8811 29.1882 14.5307 28.7875 14.9315L17.5492 26.1698Z" fill="#5D26F1"/>
</svg>
