<svg width="28" height="26" viewBox="0 0 28 26" fill="none" xmlns="http://www.w3.org/2000/svg">
<path d="M16.6251 16.5004C16.6251 15.3734 17.5398 14.4587 18.6668 14.4587H22.1668C22.7083 14.4587 23.2276 14.6738 23.6105 15.0567C23.9934 15.4396 24.2085 15.9589 24.2085 16.5004C24.2085 17.0419 23.9934 17.5612 23.6105 17.9441C23.2276 18.327 22.7083 18.5421 22.1668 18.5421H18.6668C18.1253 18.5421 17.606 18.327 17.2231 17.9441C16.8402 17.5612 16.6251 17.0419 16.6251 16.5004ZM18.3751 16.5004C18.3751 16.6614 18.5058 16.7921 18.6668 16.7921H22.1668C22.2441 16.7921 22.3183 16.7613 22.373 16.7066C22.4277 16.6519 22.4585 16.5778 22.4585 16.5004C22.4585 16.4231 22.4277 16.3489 22.373 16.2942C22.3183 16.2395 22.2441 16.2087 22.1668 16.2087H18.6668C18.5894 16.2087 18.5152 16.2395 18.4605 16.2942C18.4058 16.3489 18.3751 16.4231 18.3751 16.5004ZM2.04179 23.7921H25.9585C26.0358 23.7921 26.11 23.7613 26.1647 23.7066C26.2194 23.6519 26.2501 23.5778 26.2501 23.5004V2.50041C26.2501 2.42305 26.2194 2.34887 26.1647 2.29417C26.11 2.23947 26.0358 2.20874 25.9585 2.20874H12.0891C12.0129 2.2086 11.9396 2.23833 11.885 2.29157L1.83762 12.1161C1.80985 12.1433 1.78781 12.1758 1.77278 12.2117C1.75775 12.2475 1.75005 12.286 1.75012 12.3249V23.5004C1.75012 23.6614 1.88079 23.7921 2.04179 23.7921ZM0.00012207 12.3237C0.00012207 11.7754 0.221789 11.2492 0.614955 10.8654L10.6623 1.04091C11.0436 0.667917 11.5557 0.458961 12.0891 0.45874H25.9585C27.0855 0.45874 28.0001 1.37341 28.0001 2.50041V23.5004C28.0001 24.0419 27.785 24.5612 27.4021 24.9441C27.0192 25.327 26.4999 25.5421 25.9585 25.5421H2.04179C1.50031 25.5421 0.980999 25.327 0.598112 24.9441C0.215226 24.5612 0.00012207 24.0419 0.00012207 23.5004L0.00012207 12.3237ZM12.2151 3.63207C12.3791 3.46793 12.6015 3.37561 12.8335 3.37541H23.9168C24.1489 3.37541 24.3714 3.46759 24.5355 3.63169C24.6996 3.79578 24.7918 4.01834 24.7918 4.25041V11.8337C24.7918 12.0658 24.6996 12.2884 24.5355 12.4525C24.3714 12.6166 24.1489 12.7087 23.9168 12.7087H5.25012C5.07718 12.7086 4.90815 12.6572 4.7644 12.561C4.62065 12.4649 4.50862 12.3283 4.44245 12.1685C4.37629 12.0087 4.35896 11.8329 4.39266 11.6632C4.42636 11.4936 4.50957 11.3378 4.63179 11.2154L12.2151 3.63207ZM13.1951 5.12541L7.36179 10.9587H23.0418V5.12541H13.1951Z" fill="#212121"/>
</svg>
