<svg width="28" height="28" viewBox="0 0 28 28" fill="none" xmlns="http://www.w3.org/2000/svg">
<path d="M19.2501 5.25049H20.1251C20.8213 5.25049 21.489 5.52705 21.9813 6.01933C22.4736 6.51162 22.7501 7.17929 22.7501 7.87549V25.3755C22.7501 25.6076 22.8423 25.8301 23.0064 25.9942C23.1705 26.1583 23.3931 26.2505 23.6251 26.2505C23.8572 26.2505 24.0797 26.1583 24.2438 25.9942C24.4079 25.8301 24.5001 25.6076 24.5001 25.3755V14.8755C24.4999 13.5606 24.8887 12.275 25.6178 11.1807L26.3971 10.014C26.5261 9.82091 26.7266 9.687 26.9544 9.64171C27.1821 9.59642 27.4185 9.64346 27.6116 9.77249C27.8047 9.90152 27.9386 10.102 27.9839 10.3297C28.0292 10.5575 27.9821 10.7939 27.8531 10.987L27.0738 12.1525C26.5366 12.959 26.25 13.9064 26.2501 14.8755V25.3755C26.2501 26.0717 25.9736 26.7394 25.4813 27.2316C24.989 27.7239 24.3213 28.0005 23.6251 28.0005C22.9289 28.0005 22.2612 27.7239 21.769 27.2316C21.2767 26.7394 21.0001 26.0717 21.0001 25.3755V7.87549C21.0001 7.64342 20.9079 7.42086 20.7438 7.25677C20.5797 7.09268 20.3572 7.00049 20.1251 7.00049H19.2501V25.9588C19.2501 26.5003 19.035 27.0196 18.6521 27.4025C18.2692 27.7854 17.7499 28.0005 17.2085 28.0005H2.04179C1.50031 28.0005 0.980999 27.7854 0.598112 27.4025C0.215226 27.0196 0.00012207 26.5003 0.00012207 25.9588L0.00012207 2.04215C0.00012207 0.915155 0.914789 0.000488281 2.04179 0.000488281H17.2085C18.3355 0.000488281 19.2501 0.915155 19.2501 2.04215V5.25049ZM1.75012 10.5005H17.5001V2.04215C17.5001 1.9648 17.4694 1.89061 17.4147 1.83592C17.36 1.78122 17.2858 1.75049 17.2085 1.75049H2.04179C1.96443 1.75049 1.89025 1.78122 1.83555 1.83592C1.78085 1.89061 1.75012 1.9648 1.75012 2.04215V10.5005ZM1.75012 12.2505V25.9588C1.75012 26.1198 1.88079 26.2505 2.04179 26.2505H17.2085C17.2858 26.2505 17.36 26.2198 17.4147 26.1651C17.4694 26.1104 17.5001 26.0362 17.5001 25.9588V12.2505H1.75012ZM15.7501 6.12549C15.7501 6.82168 15.4736 7.48936 14.9813 7.98164C14.489 8.47393 13.8213 8.75049 13.1251 8.75049H6.12512C5.7804 8.75049 5.43906 8.68259 5.12058 8.55067C4.8021 8.41875 4.51272 8.2254 4.26897 7.98164C4.02521 7.73789 3.83186 7.44851 3.69994 7.13003C3.56802 6.81155 3.50012 6.47021 3.50012 6.12549C3.50012 5.78077 3.56802 5.43942 3.69994 5.12094C3.83186 4.80246 4.02521 4.51309 4.26897 4.26933C4.51272 4.02558 4.8021 3.83222 5.12058 3.7003C5.43906 3.56839 5.7804 3.50049 6.12512 3.50049H13.1251C13.8213 3.50049 14.489 3.77705 14.9813 4.26933C15.4736 4.76162 15.7501 5.4293 15.7501 6.12549ZM14.0001 6.12549C14.0001 5.89342 13.9079 5.67086 13.7438 5.50677C13.5797 5.34268 13.3572 5.25049 13.1251 5.25049H6.12512C5.89306 5.25049 5.6705 5.34268 5.5064 5.50677C5.34231 5.67086 5.25012 5.89342 5.25012 6.12549C5.25012 6.35755 5.34231 6.58011 5.5064 6.74421C5.6705 6.9083 5.89306 7.00049 6.12512 7.00049H13.1251C13.3572 7.00049 13.5797 6.9083 13.7438 6.74421C13.9079 6.58011 14.0001 6.35755 14.0001 6.12549ZM25.3751 15.7505C25.1431 15.7505 24.9205 15.6583 24.7564 15.4942C24.5923 15.3301 24.5001 15.1076 24.5001 14.8755C24.5001 14.6434 24.5923 14.4209 24.7564 14.2568C24.9205 14.0927 25.1431 14.0005 25.3751 14.0005H27.1251C27.3572 14.0005 27.5797 14.0927 27.7438 14.2568C27.9079 14.4209 28.0001 14.6434 28.0001 14.8755C28.0001 15.1076 27.9079 15.3301 27.7438 15.4942C27.5797 15.6583 27.3572 15.7505 27.1251 15.7505H25.3751Z" fill="#212121"/>
</svg>
