<svg width="25" height="28" viewBox="0 0 25 28" fill="none" xmlns="http://www.w3.org/2000/svg">
<path d="M5.70902 8.66299V13.1255C5.70902 13.6085 6.10102 14.0005 6.58402 14.0005H8.33402C9.03022 14.0005 9.6979 14.2771 10.1902 14.7693C10.6825 15.2616 10.959 15.9293 10.959 16.6255V21.8755C10.959 22.3585 11.351 22.7505 11.834 22.7505H15.334C15.5661 22.7505 15.7886 22.8427 15.9527 23.0068C16.1168 23.1709 16.209 23.3934 16.209 23.6255C16.209 23.8576 16.1168 24.0801 15.9527 24.2442C15.7886 24.4083 15.5661 24.5005 15.334 24.5005H11.834C11.1378 24.5005 10.4702 24.2239 9.97787 23.7316C9.48559 23.2394 9.20902 22.5717 9.20902 21.8755V16.6255C9.20902 16.3934 9.11684 16.1709 8.95274 16.0068C8.78865 15.8427 8.56609 15.7505 8.33402 15.7505H6.58402C5.88783 15.7505 5.22015 15.4739 4.72787 14.9816C4.23559 14.4894 3.95902 13.8217 3.95902 13.1255V8.66299C2.898 8.44463 1.95567 7.84051 1.31434 6.9675C0.673008 6.09448 0.378265 5.01463 0.487131 3.93685C0.595998 2.85907 1.10074 1.85998 1.90369 1.13285C2.70665 0.405725 3.75076 0.00225238 4.83402 0.000490493C5.91898 -0.000599889 6.96564 0.401486 7.77082 1.12869C8.57599 1.8559 9.08223 2.85634 9.19127 3.93581C9.30031 5.01527 9.00436 6.09674 8.36088 6.97028C7.71739 7.84381 6.77228 8.44709 5.70902 8.66299ZM21.459 16.6255C21.459 16.8576 21.3668 17.0801 21.2027 17.2442C21.0386 17.4083 20.8161 17.5005 20.584 17.5005C20.352 17.5005 20.1294 17.4083 19.9653 17.2442C19.8012 17.0801 19.709 16.8576 19.709 16.6255V11.3755C19.709 10.5098 20.8314 10.1703 21.312 10.8902L23.209 13.7357V11.3755C23.209 11.1434 23.3012 10.9209 23.4653 10.7568C23.6294 10.5927 23.852 10.5005 24.084 10.5005C24.3161 10.5005 24.5386 10.5927 24.7027 10.7568C24.8668 10.9209 24.959 11.1434 24.959 11.3755V16.6255C24.959 17.4912 23.8367 17.8307 23.356 17.1108L21.459 14.2653V16.6255ZM24.959 23.6255C24.959 24.7858 24.4981 25.8986 23.6776 26.7191C22.8571 27.5396 21.7443 28.0005 20.584 28.0005C20.352 28.0005 20.1294 27.9083 19.9653 27.7442C19.8012 27.5801 19.709 27.3576 19.709 27.1255V20.1255C19.709 19.8934 19.8012 19.6709 19.9653 19.5068C20.1294 19.3427 20.352 19.2505 20.584 19.2505C21.7443 19.2505 22.8571 19.7114 23.6776 20.5319C24.4981 21.3524 24.959 22.4652 24.959 23.6255ZM23.209 23.6255C23.2092 23.0825 23.041 22.5529 22.7276 22.1095C22.4141 21.6661 21.9709 21.3308 21.459 21.1498V26.1012C21.9709 25.9202 22.4141 25.5849 22.7276 25.1415C23.041 24.6981 23.2092 24.1685 23.209 23.6255ZM21.459 5.25049V7.87549C21.459 8.10755 21.3668 8.33011 21.2027 8.49421C21.0386 8.6583 20.8161 8.75049 20.584 8.75049C20.352 8.75049 20.1294 8.6583 19.9653 8.49421C19.8012 8.33011 19.709 8.10755 19.709 7.87549V0.87549C19.709 0.643426 19.8012 0.420866 19.9653 0.256772C20.1294 0.0926777 20.352 0.000490493 20.584 0.000490493H22.334C23.0302 0.000490493 23.6979 0.277052 24.1902 0.769335C24.6825 1.26162 24.959 1.9293 24.959 2.62549C24.959 3.32168 24.6825 3.98936 24.1902 4.48165C23.6979 4.97393 23.0302 5.25049 22.334 5.25049H21.459ZM21.459 3.50049H22.334C22.5661 3.50049 22.7886 3.4083 22.9527 3.24421C23.1168 3.08011 23.209 2.85755 23.209 2.62549C23.209 2.39343 23.1168 2.17087 22.9527 2.00677C22.7886 1.84268 22.5661 1.75049 22.334 1.75049H21.459V3.50049ZM4.83402 7.00049C5.53022 7.00049 6.1979 6.72393 6.69018 6.23165C7.18246 5.73936 7.45902 5.07168 7.45902 4.37549C7.45902 3.6793 7.18246 3.01162 6.69018 2.51934C6.1979 2.02705 5.53022 1.75049 4.83402 1.75049C4.13783 1.75049 3.47015 2.02705 2.97787 2.51934C2.48559 3.01162 2.20902 3.6793 2.20902 4.37549C2.20902 5.07168 2.48559 5.73936 2.97787 6.23165C3.47015 6.72393 4.13783 7.00049 4.83402 7.00049Z" fill="#212121"/>
</svg>
