<svg width="69" height="44" viewBox="0 0 69 44" fill="none" xmlns="http://www.w3.org/2000/svg">
<path d="M1.25977 18H15.2598M1.25977 22H15.2598M1.25977 14H15.2598" stroke="#222222" stroke-width="1.5"/>
<g filter="url(#filter0_dd_1343_9944)">
<rect x="30.5931" y="1.33333" width="33.3333" height="33.3333" rx="16.6667" stroke="white" stroke-width="1.33333"/>
<path d="M52.5932 24V22.6667C52.5932 21.9594 52.3122 21.2811 51.8121 20.781C51.312 20.281 50.6338 20 49.9265 20H44.5932C43.8859 20 43.2077 20.281 42.7076 20.781C42.2075 21.2811 41.9265 21.9594 41.9265 22.6667V24M49.9265 14.6667C49.9265 16.1394 48.7326 17.3333 47.2598 17.3333C45.7871 17.3333 44.5932 16.1394 44.5932 14.6667C44.5932 13.1939 45.7871 12 47.2598 12C48.7326 12 49.9265 13.1939 49.9265 14.6667Z" stroke="#222222" stroke-width="1.33333" stroke-linecap="round" stroke-linejoin="round"/>
</g>
<defs>
<filter id="filter0_dd_1343_9944" x="25.9265" y="0.666668" width="42.6665" height="42.6667" filterUnits="userSpaceOnUse" color-interpolation-filters="sRGB">
<feFlood flood-opacity="0" result="BackgroundImageFix"/>
<feColorMatrix in="SourceAlpha" type="matrix" values="0 0 0 0 0 0 0 0 0 0 0 0 0 0 0 0 0 0 127 0" result="hardAlpha"/>
<feMorphology radius="0.666667" operator="erode" in="SourceAlpha" result="effect1_dropShadow_1343_9944"/>
<feOffset dy="1.33333"/>
<feGaussianBlur stdDeviation="1"/>
<feColorMatrix type="matrix" values="0 0 0 0 0.0627451 0 0 0 0 0.0941176 0 0 0 0 0.156863 0 0 0 0.03 0"/>
<feBlend mode="normal" in2="BackgroundImageFix" result="effect1_dropShadow_1343_9944"/>
<feColorMatrix in="SourceAlpha" type="matrix" values="0 0 0 0 0 0 0 0 0 0 0 0 0 0 0 0 0 0 127 0" result="hardAlpha"/>
<feMorphology radius="1.33333" operator="erode" in="SourceAlpha" result="effect2_dropShadow_1343_9944"/>
<feOffset dy="4"/>
<feGaussianBlur stdDeviation="2.66667"/>
<feColorMatrix type="matrix" values="0 0 0 0 0.0627451 0 0 0 0 0.0941176 0 0 0 0 0.156863 0 0 0 0.08 0"/>
<feBlend mode="normal" in2="effect1_dropShadow_1343_9944" result="effect2_dropShadow_1343_9944"/>
<feBlend mode="normal" in="SourceGraphic" in2="effect2_dropShadow_1343_9944" result="shape"/>
</filter>
</defs>
</svg>
