<svg width="16" height="14" viewBox="0 0 16 14" fill="none" xmlns="http://www.w3.org/2000/svg">
<path d="M14.6666 6.99999H10.6666L9.33325 8.99999H6.66659L5.33325 6.99999H1.33325M14.6666 6.99999V11C14.6666 11.3536 14.5261 11.6927 14.2761 11.9428C14.026 12.1928 13.6869 12.3333 13.3333 12.3333H2.66659C2.31296 12.3333 1.97382 12.1928 1.72378 11.9428C1.47373 11.6927 1.33325 11.3536 1.33325 11V6.99999M14.6666 6.99999L12.3666 2.40666C12.2562 2.18451 12.086 1.99757 11.8752 1.86684C11.6644 1.73612 11.4213 1.66679 11.1733 1.66666H4.82659C4.57853 1.66679 4.33543 1.73612 4.12462 1.86684C3.9138 1.99757 3.74364 2.18451 3.63325 2.40666L1.33325 6.99999" stroke="#344054" stroke-width="1.5" stroke-linecap="round" stroke-linejoin="round"/>
</svg>
