<svg width="23" height="28" viewBox="0 0 23 28" fill="none" xmlns="http://www.w3.org/2000/svg">
<path d="M18.3677 18.9104L18.2965 18.7704C18.204 18.5658 18.0544 18.3922 17.8657 18.2705C17.6769 18.1488 17.4571 18.0842 17.2325 18.0844H11.0235L8.41719 10.9234C8.3648 10.7794 8.28455 10.6471 8.18102 10.5341C8.0775 10.4211 7.95274 10.3296 7.81385 10.2648C7.67497 10.2 7.52468 10.1632 7.37158 10.1565C7.21847 10.1498 7.06554 10.1733 6.92153 10.2257C6.77751 10.2781 6.64522 10.3584 6.53222 10.4619C6.41922 10.5654 6.32771 10.6902 6.26293 10.8291C6.19815 10.968 6.16135 11.1182 6.15465 11.2713C6.14794 11.4244 6.17146 11.5774 6.22386 11.7214L9.01803 19.3957C9.03553 19.4459 9.05769 19.4949 9.08103 19.5404L9.15103 19.6909C9.23854 19.9059 9.38819 20.0899 9.58085 20.2194C9.7735 20.3488 10.0004 20.4179 10.2325 20.4177H16.4509L18.2534 25.3702C18.3592 25.6611 18.5762 25.898 18.8567 26.0288C19.1372 26.1597 19.4582 26.1737 19.749 26.0679C20.0399 25.9621 20.2768 25.745 20.4076 25.4646C20.5385 25.1841 20.5525 24.8631 20.4467 24.5722L18.4505 19.0901C18.4283 19.028 18.3999 18.9679 18.3677 18.9104ZM20.0944 18.4916L22.0894 23.9737C22.3417 24.6976 22.2988 25.4918 21.9701 26.1844C21.6414 26.8769 21.0532 27.4122 20.3328 27.6744C19.6124 27.9366 18.8177 27.9047 18.1207 27.5855C17.4237 27.2662 16.8804 26.6855 16.6084 25.9687L15.2259 22.1677H10.2325C9.65259 22.1679 9.08576 21.9951 8.60448 21.6716C8.12319 21.348 7.74928 20.8883 7.53053 20.3512C7.47019 20.2358 7.41757 20.1166 7.37303 19.9942L4.58003 12.3211C4.31547 11.5941 4.35055 10.7918 4.67753 10.0907C5.00452 9.38954 5.59663 8.84703 6.32361 8.58248C7.05059 8.31792 7.85289 8.353 8.55401 8.67998C9.25513 9.00697 9.79764 9.59908 10.0622 10.3261L12.2485 16.3344H17.2325C17.7934 16.3343 18.3424 16.4959 18.8138 16.7999C19.2852 17.1038 19.6589 17.5373 19.8902 18.0482C19.9695 18.1882 20.0372 18.3352 20.0944 18.4916ZM13.4992 23.9189C13.7313 23.9189 13.9538 24.0111 14.1179 24.1752C14.282 24.3393 14.3742 24.5618 14.3742 24.7939C14.3742 25.026 14.282 25.2485 14.1179 25.4126C13.9538 25.5767 13.7313 25.6689 13.4992 25.6689H8.36703C7.46908 25.6689 6.59289 25.3926 5.85738 24.8775C5.12187 24.3624 4.56267 23.6334 4.25569 22.7896L0.426693 11.9664C0.347482 11.7483 0.358171 11.5076 0.456409 11.2973C0.554646 11.0871 0.732386 10.9244 0.950527 10.8452C1.16867 10.766 1.40934 10.7767 1.6196 10.8749C1.82986 10.9732 1.99248 11.1509 2.07169 11.3691L5.90069 22.1911C6.08482 22.6973 6.42024 23.1347 6.86146 23.4438C7.30268 23.7529 7.82831 23.9188 8.36703 23.9189H13.4992ZM3.29086 4.08439C3.29086 4.62587 3.50596 5.14518 3.88885 5.52807C4.27174 5.91095 4.79104 6.12606 5.33253 6.12606C5.87401 6.12606 6.39332 5.91095 6.7762 5.52807C7.15909 5.14518 7.37419 4.62587 7.37419 4.08439C7.37419 3.54291 7.15909 3.0236 6.7762 2.64072C6.39332 2.25783 5.87401 2.04272 5.33253 2.04272C4.79104 2.04272 4.27174 2.25783 3.88885 2.64072C3.50596 3.0236 3.29086 3.54291 3.29086 4.08439ZM1.54086 4.08439C1.54086 3.07878 1.94034 2.11435 2.65141 1.40328C3.36249 0.692203 4.32691 0.292725 5.33253 0.292725C6.33814 0.292725 7.30256 0.692203 8.01364 1.40328C8.72471 2.11435 9.12419 3.07878 9.12419 4.08439C9.12419 5.09 8.72471 6.05443 8.01364 6.7655C7.30256 7.47658 6.33814 7.87606 5.33253 7.87606C4.32691 7.87606 3.36249 7.47658 2.65141 6.7655C1.94034 6.05443 1.54086 5.09 1.54086 4.08439Z" fill="#212121"/>
</svg>
