<svg width="17" height="20" viewBox="0 0 17 20" fill="none" xmlns="http://www.w3.org/2000/svg">
<path fill-rule="evenodd" clip-rule="evenodd" d="M3.39444 6.83849C4.01924 5.25349 4.77081 4.16016 6.47219 4.16016H11.0327C12.7325 4.16016 13.4849 5.25349 14.1105 6.83849L14.7353 8.53432C15.2009 8.54007 15.6285 8.79857 15.859 9.21349C15.9945 9.44982 16.0655 9.71924 16.0645 9.99349V12.1802C16.0706 12.6907 15.8193 13.1683 15.4 13.4435C15.2005 13.5709 14.9703 13.6384 14.7353 13.6385H2.76881C2.53385 13.6384 2.30362 13.5709 2.10419 13.4435C1.68478 13.1683 1.43351 12.6907 1.43956 12.1802V9.99349C1.43868 9.71957 1.50968 9.45041 1.64512 9.21432C1.87557 8.79941 2.30325 8.54091 2.76881 8.53516L3.39444 6.83849Z" stroke="#383838" stroke-width="1.5" stroke-linecap="round" stroke-linejoin="round"/>
<path d="M4.72377 13.6392C4.72377 13.294 4.44395 13.0142 4.09877 13.0142C3.75359 13.0142 3.47377 13.294 3.47377 13.6392H4.72377ZM4.09877 14.7333H3.47377C3.47377 14.7398 3.47387 14.7463 3.47408 14.7528L4.09877 14.7333ZM3.10102 15.8267L3.07868 16.4512C3.09341 16.4518 3.10814 16.4518 3.12286 16.4513L3.10102 15.8267ZM2.10408 14.7325L2.72876 14.7525C2.72898 14.7458 2.72908 14.7392 2.72908 14.7325H2.10408ZM2.72908 13.4433C2.72908 13.0982 2.44926 12.8183 2.10408 12.8183C1.7589 12.8183 1.47908 13.0982 1.47908 13.4433H2.72908ZM2.76871 7.90918C2.42353 7.90918 2.14371 8.189 2.14371 8.53416C2.14371 8.87933 2.42353 9.15916 2.76871 9.15916V7.90918ZM14.7352 9.15916C15.0804 9.15916 15.3602 8.87933 15.3602 8.53416C15.3602 8.189 15.0804 7.90918 14.7352 7.90918V9.15916ZM14.0309 13.6383C14.0309 13.2932 13.7511 13.0133 13.4059 13.0133C13.0608 13.0133 12.7809 13.2932 12.7809 13.6383H14.0309ZM13.4059 14.7325L14.0298 14.7713C14.0305 14.7584 14.0309 14.7455 14.0309 14.7325H13.4059ZM15.4006 14.7325H14.7756C14.7756 14.7455 14.776 14.7584 14.7769 14.7713L15.4006 14.7325ZM16.0256 13.4433C16.0256 13.0982 15.7459 12.8183 15.4006 12.8183C15.0554 12.8183 14.7756 13.0982 14.7756 13.4433H16.0256ZM3.87696 10.6183C3.53178 10.6183 3.25196 10.8982 3.25196 11.2433C3.25196 11.5885 3.53178 11.8683 3.87696 11.8683V10.6183ZM4.68946 11.8683C5.03463 11.8683 5.31446 11.5885 5.31446 11.2433C5.31446 10.8982 5.03463 10.6183 4.68946 10.6183V11.8683ZM12.8144 10.6183C12.4693 10.6183 12.1894 10.8982 12.1894 11.2433C12.1894 11.5885 12.4693 11.8683 12.8144 11.8683V10.6183ZM13.6269 11.8683C13.9721 11.8683 14.2519 11.5885 14.2519 11.2433C14.2519 10.8982 13.9721 10.6183 13.6269 10.6183V11.8683ZM3.47377 13.6392V14.7333H4.72377V13.6392H3.47377ZM3.47408 14.7528C3.48204 15.0079 3.29004 15.1947 3.07918 15.2021L3.12286 16.4513C4.05125 16.4188 4.752 15.6273 4.72347 14.7138L3.47408 14.7528ZM3.12335 15.2021C2.91247 15.1946 2.72059 15.0076 2.72876 14.7525L1.4794 14.7125C1.45013 15.626 2.1503 16.4181 3.07868 16.4512L3.12335 15.2021ZM2.72908 14.7325V13.4433H1.47908V14.7325H2.72908ZM2.76871 9.15916H14.7352V7.90918H2.76871V9.15916ZM12.7809 13.6383V14.7325H14.0309V13.6383H12.7809ZM12.7822 14.6937C12.7445 15.2989 13.0373 15.8832 13.5554 16.2052L14.2153 15.1436C14.0967 15.0699 14.0199 14.9282 14.0298 14.7713L12.7822 14.6937ZM13.5554 16.2052C14.0758 16.5287 14.7308 16.5287 15.2512 16.2052L14.5914 15.1436C14.475 15.2159 14.3316 15.2159 14.2153 15.1436L13.5554 16.2052ZM15.2512 16.2052C15.7694 15.8832 16.0621 15.2989 16.0244 14.6937L14.7769 14.7713C14.7866 14.9282 14.7099 15.0699 14.5914 15.1436L15.2512 16.2052ZM16.0256 14.7325V13.4433H14.7756V14.7325H16.0256ZM3.87696 11.8683H4.68946V10.6183H3.87696V11.8683ZM12.8144 11.8683H13.6269V10.6183H12.8144V11.8683Z" fill="#383838"/>
</svg>
