<?xml version="1.0" encoding="UTF-8"?><svg xmlns="http://www.w3.org/2000/svg" viewBox="0 0 68 60"><defs><style>.d{fill:#fff;}.e{fill:#5d26f1;}.f{stroke-linecap:round;stroke-linejoin:round;stroke-width:1.5px;}.f,.g{fill:none;stroke:#5d26f1;}.g{stroke-width:2px;}.h{fill:rgba(93,38,241,.4);}</style></defs><g id="a"/><g id="b"><g id="c"><rect class="h" width="68" height="60" rx="28" ry="28"/><g><rect class="d" x="10" y="10" width="48" height="40" rx="12" ry="12"/><rect class="g" x="11" y="11" width="46" height="38" rx="11" ry="11"/><path class="f" d="M27.27,26.21c.75-1.9,1.65-3.21,3.69-3.21h5.47c2.04,0,2.94,1.31,3.69,3.21l.75,2.03c.56,0,1.07,.32,1.35,.82,.16,.28,.25,.61,.25,.94v2.62c0,.61-.29,1.19-.8,1.52-.24,.15-.52,.23-.8,.23h-14.36c-.28,0-.56-.08-.8-.23-.5-.33-.8-.9-.8-1.52v-2.62c0-.33,.08-.65,.25-.94,.28-.5,.79-.81,1.35-.81l.75-2.04Z"/><path class="e" d="M28.87,34.37c0-.41-.34-.75-.75-.75s-.75,.34-.75,.75h1.5Zm-.75,1.31h-.75v.02l.75-.02Zm-1.2,1.31l-.03,.75s.04,0,.05,0l-.03-.75Zm-1.2-1.31l.75,.02v-.02h-.75Zm.75-1.55c0-.41-.34-.75-.75-.75s-.75,.34-.75,.75h1.5Zm.05-6.64c-.41,0-.75,.34-.75,.75s.34,.75,.75,.75v-1.5Zm14.36,1.5c.41,0,.75-.34,.75-.75s-.34-.75-.75-.75v1.5Zm-.85,5.38c0-.41-.34-.75-.75-.75s-.75,.34-.75,.75h1.5Zm-.75,1.31l.75,.05s0-.03,0-.05h-.75Zm2.39,0h-.75s0,.03,0,.05l.75-.05Zm.75-1.55c0-.41-.34-.75-.75-.75s-.75,.34-.75,.75h1.5Zm-14.58-3.39c-.41,0-.75,.34-.75,.75s.34,.75,.75,.75v-1.5Zm.98,1.5c.41,0,.75-.34,.75-.75s-.34-.75-.75-.75v1.5Zm9.75-1.5c-.41,0-.75,.34-.75,.75s.34,.75,.75,.75v-1.5Zm.97,1.5c.41,0,.75-.34,.75-.75s-.34-.75-.75-.75v1.5Zm-12.18,2.12v1.31h1.5v-1.31h-1.5Zm0,1.34c0,.31-.22,.53-.47,.54l.05,1.5c1.11-.04,1.96-.99,1.92-2.08l-1.5,.05Zm-.42,.54c-.25,0-.48-.23-.47-.54l-1.5-.05c-.04,1.1,.81,2.05,1.92,2.09l.05-1.5Zm-.47-.56v-1.55h-1.5v1.55h1.5Zm.05-6.69h14.36v-1.5h-14.36v1.5Zm12.01,5.38v1.31h1.5v-1.31h-1.5Zm0,1.27c-.05,.73,.31,1.43,.93,1.81l.79-1.27c-.14-.09-.23-.26-.22-.45l-1.5-.09Zm.93,1.81c.62,.39,1.41,.39,2.03,0l-.79-1.27c-.14,.09-.31,.09-.45,0l-.79,1.27Zm2.03,0c.62-.39,.97-1.09,.93-1.81l-1.5,.09c.01,.19-.08,.36-.22,.45l.79,1.27Zm.93-1.77v-1.55h-1.5v1.55h1.5Zm-14.58-3.44h.98v-1.5h-.98v1.5Zm10.73,0h.97v-1.5h-.97v1.5Z"/></g></g></g></svg>