<svg width="20" height="18" viewBox="0 0 20 18" fill="none" xmlns="http://www.w3.org/2000/svg">
<path d="M13.3335 12.3334L10.0002 9.00003M10.0002 9.00003L6.66688 12.3334M10.0002 9.00003V16.5M16.9919 14.325C17.8047 13.8819 18.4467 13.1808 18.8168 12.3322C19.1868 11.4837 19.2637 10.5361 19.0354 9.63894C18.807 8.74182 18.2865 7.94629 17.5558 7.3779C16.8251 6.80951 15.9259 6.50064 15.0002 6.50003H13.9502C13.698 5.5244 13.2278 4.61864 12.5752 3.85085C11.9225 3.08307 11.1042 2.47324 10.182 2.0672C9.25967 1.66116 8.25734 1.46949 7.25031 1.5066C6.24328 1.5437 5.25777 1.80861 4.36786 2.28142C3.47795 2.75422 2.7068 3.42261 2.1124 4.23635C1.51799 5.05008 1.11579 5.98797 0.936028 6.97952C0.756269 7.97107 0.803632 8.99047 1.07456 9.96108C1.34548 10.9317 1.83291 11.8282 2.50021 12.5834" stroke="#475467" stroke-width="1.66667" stroke-linecap="round" stroke-linejoin="round"/>
</svg>
