<svg width="22" height="23" viewBox="0 0 22 23" fill="none" xmlns="http://www.w3.org/2000/svg">
<path d="M16.5 6.08887H16.51M6 1.58887H16C18.7614 1.58887 21 3.82744 21 6.58887V16.5889C21 19.3503 18.7614 21.5889 16 21.5889H6C3.23858 21.5889 1 19.3503 1 16.5889V6.58887C1 3.82744 3.23858 1.58887 6 1.58887ZM15 10.9589C15.1234 11.7911 14.9813 12.6411 14.5938 13.3879C14.2063 14.1347 13.5931 14.7403 12.8416 15.1185C12.0901 15.4968 11.2384 15.6285 10.4078 15.4948C9.57713 15.3611 8.80976 14.969 8.21484 14.374C7.61992 13.7791 7.22773 13.0117 7.09407 12.1811C6.9604 11.3504 7.09207 10.4988 7.47033 9.74724C7.84859 8.99572 8.45419 8.38261 9.20098 7.99511C9.94778 7.60761 10.7978 7.46546 11.63 7.58887C12.4789 7.71475 13.2649 8.11033 13.8717 8.71717C14.4785 9.32402 14.8741 10.1099 15 10.9589Z" stroke="#98A2B3" stroke-width="2" stroke-linecap="round" stroke-linejoin="round"/>
</svg>
