<svg width="24" height="25" viewBox="0 0 24 25" fill="none" xmlns="http://www.w3.org/2000/svg">
<path d="M22.2234 0.588867H1.77187C0.792187 0.588867 0 1.3623 0 2.31855V22.8545C0 23.8107 0.792187 24.5889 1.77187 24.5889H22.2234C23.2031 24.5889 24 23.8107 24 22.8592V2.31855C24 1.3623 23.2031 0.588867 22.2234 0.588867ZM7.12031 21.0404H3.55781V9.58418H7.12031V21.0404ZM5.33906 8.02324C4.19531 8.02324 3.27188 7.0998 3.27188 5.96074C3.27188 4.82168 4.19531 3.89824 5.33906 3.89824C6.47813 3.89824 7.40156 4.82168 7.40156 5.96074C7.40156 7.09512 6.47813 8.02324 5.33906 8.02324ZM20.4516 21.0404H16.8937V15.4717C16.8937 14.1451 16.8703 12.4342 15.0422 12.4342C13.1906 12.4342 12.9094 13.8826 12.9094 15.3779V21.0404H9.35625V9.58418H12.7687V11.1498H12.8156C13.2891 10.2498 14.4516 9.29824 16.1813 9.29824C19.7859 9.29824 20.4516 11.6701 20.4516 14.7545V21.0404Z" fill="#98A2B3"/>
</svg>
