<svg width="20" height="20" viewBox="0 0 20 20" fill="none" xmlns="http://www.w3.org/2000/svg">
<path fill-rule="evenodd" clip-rule="evenodd" d="M4.39419 6.83861C5.019 5.25361 5.77057 4.16028 7.47194 4.16028H12.0325C13.7322 4.16028 14.4846 5.25361 15.1102 6.83861L15.7351 8.53444C16.2006 8.54019 16.6283 8.7987 16.8587 9.21361C16.9943 9.44995 17.0653 9.71936 17.0643 9.99361V12.1803C17.0704 12.6909 16.8191 13.1684 16.3997 13.4436C16.2002 13.571 15.9701 13.6385 15.7351 13.6386H3.76857C3.53361 13.6385 3.30337 13.571 3.10394 13.4436C2.68454 13.1684 2.43327 12.6909 2.43932 12.1803V9.99361C2.43843 9.7197 2.50944 9.45053 2.64487 9.21444C2.87532 8.79953 3.30301 8.54103 3.76857 8.53528L4.39419 6.83861Z" stroke="#383838" stroke-linecap="round" stroke-linejoin="round"/>
<path d="M5.72352 13.6392C5.72352 13.294 5.44371 13.0142 5.09852 13.0142C4.75335 13.0142 4.47352 13.294 4.47352 13.6392H5.72352ZM5.09852 14.7333H4.47352C4.47352 14.7398 4.47362 14.7463 4.47383 14.7528L5.09852 14.7333ZM4.10077 15.8267L4.07844 16.4512C4.09316 16.4518 4.1079 16.4518 4.12261 16.4513L4.10077 15.8267ZM3.10384 14.7325L3.72851 14.7525C3.72873 14.7458 3.72884 14.7392 3.72884 14.7325H3.10384ZM3.72884 13.4433C3.72884 13.0982 3.44901 12.8183 3.10384 12.8183C2.75866 12.8183 2.47884 13.0982 2.47884 13.4433H3.72884ZM3.76846 7.90918C3.42328 7.90918 3.14346 8.189 3.14346 8.53416C3.14346 8.87933 3.42328 9.15916 3.76846 9.15916V7.90918ZM15.7349 9.15916C16.0801 9.15916 16.3599 8.87933 16.3599 8.53416C16.3599 8.189 16.0801 7.90918 15.7349 7.90918V9.15916ZM15.0307 13.6383C15.0307 13.2932 14.7509 13.0133 14.4057 13.0133C14.0605 13.0133 13.7807 13.2932 13.7807 13.6383H15.0307ZM14.4057 14.7325L15.0295 14.7713C15.0303 14.7584 15.0307 14.7455 15.0307 14.7325H14.4057ZM16.4004 14.7325H15.7754C15.7754 14.7455 15.7758 14.7584 15.7766 14.7713L16.4004 14.7325ZM17.0254 13.4433C17.0254 13.0982 16.7456 12.8183 16.4004 12.8183C16.0552 12.8183 15.7754 13.0982 15.7754 13.4433H17.0254ZM4.87671 10.6183C4.53153 10.6183 4.25171 10.8982 4.25171 11.2433C4.25171 11.5885 4.53153 11.8683 4.87671 11.8683V10.6183ZM5.68921 11.8683C6.03439 11.8683 6.31421 11.5885 6.31421 11.2433C6.31421 10.8982 6.03439 10.6183 5.68921 10.6183V11.8683ZM13.8142 10.6183C13.469 10.6183 13.1892 10.8982 13.1892 11.2433C13.1892 11.5885 13.469 11.8683 13.8142 11.8683V10.6183ZM14.6267 11.8683C14.9719 11.8683 15.2517 11.5885 15.2517 11.2433C15.2517 10.8982 14.9719 10.6183 14.6267 10.6183V11.8683ZM4.47352 13.6392V14.7333H5.72352V13.6392H4.47352ZM4.47383 14.7528C4.4818 15.0079 4.2898 15.1947 4.07893 15.2021L4.12261 16.4513C5.05101 16.4188 5.75176 15.6273 5.72322 14.7138L4.47383 14.7528ZM4.12311 15.2021C3.91222 15.1946 3.72035 15.0076 3.72851 14.7525L2.47916 14.7125C2.44989 15.626 3.15006 16.4181 4.07844 16.4512L4.12311 15.2021ZM3.72884 14.7325V13.4433H2.47884V14.7325H3.72884ZM3.76846 9.15916H15.7349V7.90918H3.76846V9.15916ZM13.7807 13.6383V14.7325H15.0307V13.6383H13.7807ZM13.7819 14.6937C13.7443 15.2989 14.037 15.8832 14.5551 16.2052L15.215 15.1436C15.0964 15.0699 15.0197 14.9282 15.0295 14.7713L13.7819 14.6937ZM14.5551 16.2052C15.0755 16.5287 15.7305 16.5287 16.2509 16.2052L15.5911 15.1436C15.4748 15.2159 15.3314 15.2159 15.215 15.1436L14.5551 16.2052ZM16.2509 16.2052C16.7691 15.8832 17.0619 15.2989 17.0242 14.6937L15.7766 14.7713C15.7864 14.9282 15.7097 15.0699 15.5911 15.1436L16.2509 16.2052ZM17.0254 14.7325V13.4433H15.7754V14.7325H17.0254ZM4.87671 11.8683H5.68921V10.6183H4.87671V11.8683ZM13.8142 11.8683H14.6267V10.6183H13.8142V11.8683Z" fill="#383838"/>
</svg>
