<svg width="121" height="40" viewBox="0 0 121 40" fill="none" xmlns="http://www.w3.org/2000/svg">
<rect x="1" y="1" width="119" height="38" rx="11" fill="white"/>
<rect x="1" y="1" width="119" height="38" rx="11" stroke="#5D26F1" stroke-width="2"/>
<path fill-rule="evenodd" clip-rule="evenodd" d="M17.2737 16.2062C18.0235 14.3042 18.9254 12.9922 20.967 12.9922H26.4396C28.4793 12.9922 29.3822 14.3042 30.1329 16.2062L30.8827 18.2412C31.4414 18.2481 31.9546 18.5583 32.2311 19.0562C32.3938 19.3398 32.479 19.6631 32.4778 19.9922V22.6162C32.4851 23.2289 32.1835 23.802 31.6803 24.1322C31.4409 24.2851 31.1647 24.3661 30.8827 24.3662H16.523C16.241 24.3661 15.9647 24.2851 15.7254 24.1322C15.2221 23.802 14.9206 23.2289 14.9279 22.6162V19.9922C14.9268 19.6635 15.012 19.3405 15.1745 19.0572C15.4511 18.5593 15.9643 18.2491 16.523 18.2422L17.2737 16.2062Z" stroke="#5D26F1" stroke-width="1.5" stroke-linecap="round" stroke-linejoin="round"/>
<path d="M18.8689 24.3672C18.8689 23.953 18.5331 23.6172 18.1189 23.6172C17.7047 23.6172 17.3689 23.953 17.3689 24.3672H18.8689ZM18.1189 25.6802H17.3689C17.3689 25.688 17.369 25.6958 17.3693 25.7036L18.1189 25.6802ZM16.9216 26.9922L16.8948 27.7417C16.9125 27.7424 16.9302 27.7424 16.9478 27.7418L16.9216 26.9922ZM15.7253 25.6792L16.4749 25.7032C16.4752 25.6952 16.4753 25.6872 16.4753 25.6792H15.7253ZM16.4753 24.1322C16.4753 23.718 16.1395 23.3822 15.7253 23.3822C15.3111 23.3822 14.9753 23.718 14.9753 24.1322H16.4753ZM16.5228 17.4912C16.1086 17.4912 15.7728 17.827 15.7728 18.2412C15.7728 18.6554 16.1086 18.9912 16.5228 18.9912V17.4912ZM30.8826 18.9912C31.2968 18.9912 31.6326 18.6554 31.6326 18.2412C31.6326 17.827 31.2968 17.4912 30.8826 17.4912V18.9912ZM30.0375 24.3662C30.0375 23.952 29.7017 23.6162 29.2875 23.6162C28.8733 23.6162 28.5375 23.952 28.5375 24.3662H30.0375ZM29.2875 25.6792L30.0361 25.7258C30.037 25.7103 30.0375 25.6948 30.0375 25.6792H29.2875ZM31.6811 25.6792H30.9311C30.9311 25.6948 30.9316 25.7103 30.9326 25.7258L31.6811 25.6792ZM32.4311 24.1322C32.4311 23.718 32.0954 23.3822 31.6811 23.3822C31.2669 23.3822 30.9311 23.718 30.9311 24.1322H32.4311ZM17.8527 20.7422C17.4385 20.7422 17.1027 21.078 17.1027 21.4922C17.1027 21.9064 17.4385 22.2422 17.8527 22.2422V20.7422ZM18.8277 22.2422C19.242 22.2422 19.5777 21.9064 19.5777 21.4922C19.5777 21.078 19.242 20.7422 18.8277 20.7422V22.2422ZM28.5777 20.7422C28.1635 20.7422 27.8277 21.078 27.8277 21.4922C27.8277 21.9064 28.1635 22.2422 28.5777 22.2422V20.7422ZM29.5527 22.2422C29.9669 22.2422 30.3027 21.9064 30.3027 21.4922C30.3027 21.078 29.9669 20.7422 29.5527 20.7422V22.2422ZM17.3689 24.3672V25.6802H18.8689V24.3672H17.3689ZM17.3693 25.7036C17.3788 26.0097 17.1484 26.2338 16.8954 26.2427L16.9478 27.7418C18.0619 27.7028 18.9028 26.753 18.8686 25.6568L17.3693 25.7036ZM16.9484 26.2427C16.6954 26.2337 16.4651 26.0093 16.4749 25.7032L14.9757 25.6552C14.9406 26.7514 15.7808 27.7019 16.8948 27.7417L16.9484 26.2427ZM16.4753 25.6792V24.1322H14.9753V25.6792H16.4753ZM16.5228 18.9912H30.8826V17.4912H16.5228V18.9912ZM28.5375 24.3662V25.6792H30.0375V24.3662H28.5375ZM28.539 25.6326C28.4938 26.3589 28.8451 27.06 29.4668 27.4465L30.2587 26.1725C30.1164 26.0841 30.0243 25.9141 30.0361 25.7258L28.539 25.6326ZM29.4668 27.4465C30.0913 27.8346 30.8773 27.8346 31.5018 27.4465L30.71 26.1725C30.5704 26.2593 30.3983 26.2593 30.2587 26.1725L29.4668 27.4465ZM31.5018 27.4465C32.1236 27.06 32.4749 26.3589 32.4297 25.6326L30.9326 25.7258C30.9443 25.9141 30.8523 26.0841 30.71 26.1725L31.5018 27.4465ZM32.4311 25.6792V24.1322H30.9311V25.6792H32.4311ZM17.8527 22.2422H18.8277V20.7422H17.8527V22.2422ZM28.5777 22.2422H29.5527V20.7422H28.5777V22.2422Z" fill="#5D26F1"/>
</svg>
